<svg width="151" height="126" viewBox="0 0 100 84" fill="none" xmlns="http://www.w3.org/2000/svg">
<path d="M90.7831 22.2516L68.5371 0L55.2616 13.2789L50.0033 8.01936L44.7451 13.2789L31.4628 0L9.21693 22.2516C-3.07231 34.5439 -3.07231 54.469 9.21693 66.7614C14.7084 72.2543 21.7194 75.2807 28.897 75.8673C40.8597 86.7064 59.1469 86.7064 71.1096 75.8673C78.2872 75.2807 85.2982 72.2543 90.7897 66.7614C103.079 54.469 103.079 34.5439 90.7897 22.2516H90.7831ZM34.875 64.5549C27.0976 64.5549 20.7931 55.5822 20.7931 44.5098C20.7931 33.4373 27.0976 24.4647 34.875 24.4647C38.4272 24.4647 41.6661 26.3379 44.1453 29.4243C43.1123 28.6644 41.9394 28.2311 40.6998 28.2311C36.5278 28.2311 33.1423 33.0507 33.1423 38.9902C33.1423 44.9298 36.5278 49.7494 40.6998 49.7494C44.8717 49.7494 48.2572 44.9298 48.2572 38.9902C48.2572 38.6969 48.2439 38.4103 48.2239 38.117C48.6971 40.1235 48.957 42.27 48.957 44.5031C48.957 55.5756 42.6524 64.5482 34.875 64.5482V64.5549ZM65.125 64.5549C57.3475 64.5549 51.043 55.5822 51.043 44.5098C51.043 33.4373 57.3475 24.4647 65.125 24.4647C68.6771 24.4647 71.916 26.3379 74.3952 29.4243C73.3622 28.6644 72.1893 28.2311 70.9497 28.2311C66.7777 28.2311 63.3922 33.0507 63.3922 38.9902C63.3922 44.9298 66.7777 49.7494 70.9497 49.7494C75.1216 49.7494 78.5072 44.9298 78.5072 38.9902C78.5072 38.6969 78.4938 38.4103 78.4738 38.117C78.947 40.1235 79.2069 42.27 79.2069 44.5031C79.2069 55.5756 72.9024 64.5482 65.125 64.5482V64.5549Z" fill="#040000"/>
</svg>
