<svg width="151" height="126" viewBox="0 0 151 126" fill="none" xmlns="http://www.w3.org/2000/svg">
<path fill-rule="evenodd" clip-rule="evenodd" d="M106.682 113.809C88.7427 130.056 61.2916 130.052 43.3559 113.816C32.5813 112.942 22.051 108.387 13.8177 100.154C-4.60945 81.7267 -4.60238 51.809 13.8177 33.3889L47.2003 0.00634713L67.1184 19.9245L75.0147 12.0282L82.9054 19.9189L102.824 0L136.207 33.3825C154.634 51.8097 154.627 81.7274 136.207 100.148C127.975 108.379 117.45 112.932 106.682 113.809Z" fill="#040000"/>
<path d="M60.8896 40.1074C63.2296 43.1574 64.7096 47.5374 64.7096 52.4074C64.7096 61.6374 59.4496 69.1174 52.9696 69.1174C46.4896 69.1174 41.2296 61.6374 41.2296 52.4074C41.2296 47.5274 42.7096 43.1574 45.0496 40.1074C36.8896 44.6274 31.0996 55.9074 31.0996 69.1174C31.0996 86.3074 40.8896 100.237 52.9796 100.237C65.0696 100.237 74.8596 86.3074 74.8596 69.1174C74.8596 55.9074 69.0696 44.6274 60.9096 40.1074H60.8896Z" fill="white" stroke="#231815" stroke-width="1.03" stroke-miterlimit="10"/>
<path d="M104.979 40.1074C107.319 43.1574 108.799 47.5374 108.799 52.4074C108.799 61.6374 103.539 69.1174 97.0595 69.1174C90.5795 69.1174 85.3195 61.6374 85.3195 52.4074C85.3195 47.5274 86.7995 43.1574 89.1395 40.1074C80.9795 44.6274 75.1895 55.9074 75.1895 69.1174C75.1895 86.3074 84.9795 100.237 97.0695 100.237C109.159 100.237 118.949 86.3074 118.949 69.1174C118.949 55.9074 113.159 44.6274 104.999 40.1074H104.979Z" fill="white" stroke="#231815" stroke-width="1.03" stroke-miterlimit="10"/>
</svg>
