<svg width="151" height="126" viewBox="0 0 151 126" fill="none" xmlns="http://www.w3.org/2000/svg">
<path fill-rule="evenodd" clip-rule="evenodd" d="M106.683 113.809C88.741 130.066 61.2779 130.062 43.3396 113.815C32.5707 112.937 22.0469 108.383 13.8177 100.154C-4.60946 81.7267 -4.60238 51.809 13.8178 33.3889L47.2003 0.00634766L67.1186 19.9247L75.0079 12.0354L82.8984 19.9259L102.824 0L136.207 33.3825C154.634 51.8097 154.627 81.7274 136.207 100.148C127.975 108.379 117.451 112.932 106.683 113.809Z" fill="#040000"/>
<path d="M89.135 100.243C86.795 97.1928 85.315 92.8128 85.315 87.9428C85.315 78.7128 90.575 71.2328 97.055 71.2328C103.535 71.2328 108.795 78.7128 108.795 87.9428C108.795 92.8228 107.315 97.1928 104.975 100.243C113.135 95.7228 118.925 84.4428 118.925 71.2328C118.925 54.0428 109.135 40.1128 97.045 40.1128C84.955 40.1128 75.165 54.0428 75.165 71.2328C75.165 84.4428 80.955 95.7228 89.115 100.243H89.135Z" fill="white" stroke="#231815" stroke-width="1.03" stroke-miterlimit="10"/>
<path d="M45.0452 100.243C42.7052 97.1928 41.2252 92.8128 41.2252 87.9428C41.2252 78.7128 46.4852 71.2328 52.9652 71.2328C59.4452 71.2328 64.7052 78.7128 64.7052 87.9428C64.7052 92.8228 63.2252 97.1928 60.8852 100.243C69.0452 95.7228 74.8352 84.4428 74.8352 71.2328C74.8352 54.0428 65.0452 40.1128 52.9552 40.1128C40.8652 40.1128 31.0752 54.0428 31.0752 71.2328C31.0752 84.4428 36.8652 95.7228 45.0252 100.243H45.0452Z" fill="white" stroke="#231815" stroke-width="1.03" stroke-miterlimit="10"/>
</svg>
