<svg width="151" height="126" viewBox="0 0 151 126" fill="none" xmlns="http://www.w3.org/2000/svg">
<g clip-path="url(#clip0_301_56)">
<path d="M136.22 33.38L102.84 0L82.92 19.92L75.03 12.03L67.14 19.92L47.21 0L13.83 33.38C-4.61 51.82 -4.61 81.71 13.83 100.15C22.07 108.39 32.59 112.93 43.36 113.81C61.31 130.07 88.75 130.07 106.7 113.81C117.47 112.93 127.99 108.39 136.23 100.15C154.67 81.71 154.67 51.82 136.23 33.38H136.22ZM50.77 93.72C39.1 93.72 29.64 80.26 29.64 63.65C29.64 47.04 39.1 33.58 50.77 33.58C56.1 33.58 60.96 36.39 64.68 41.02C63.13 39.88 61.37 39.23 59.51 39.23C53.25 39.23 48.17 46.46 48.17 55.37C48.17 64.28 53.25 71.51 59.51 71.51C65.77 71.51 70.85 64.28 70.85 55.37C70.85 54.93 70.83 54.5 70.8 54.06C71.51 57.07 71.9 60.29 71.9 63.64C71.9 80.25 62.44 93.71 50.77 93.71V93.72ZM122.57 56.5L79.52 71.9V63.67L122.57 48.27V56.49V56.5Z" fill="#040000"/>
</g>
<defs>
<clipPath id="clip0_301_56">
<rect width="150.05" height="126.01" fill="white"/>
</clipPath>
</defs>
</svg>
